<svg width="56" height="57" viewBox="0 0 56 57" fill="none" xmlns="http://www.w3.org/2000/svg">
<path d="M48 0.0380859H8C3.58172 0.0380859 0 3.61981 0 8.03809V48.0381C0 52.4564 3.58172 56.0381 8 56.0381H48C52.4183 56.0381 56 52.4564 56 48.0381V8.03809C56 3.61981 52.4183 0.0380859 48 0.0380859Z" fill="#2500FF"/>
<path fill-rule="evenodd" clip-rule="evenodd" d="M43.1805 21.5773C42.9125 21.4216 42.6193 21.2918 42.3108 21.1983C42.2046 21.1671 42.0985 21.1412 41.9923 21.1152C40.0608 20.705 38.1698 21.972 37.6895 23.9348C37.649 24.0958 37.6086 24.2619 37.558 24.4229C37.4417 24.8331 37.3052 25.233 37.1586 25.6224C34.6356 32.217 27.5873 35.8674 20.8322 33.8422C20.544 33.754 20.2609 33.6605 19.9828 33.5566C19.4468 33.3593 18.9311 33.1257 18.4356 32.866C16.7671 31.9885 14.7092 32.4973 13.6676 34.0967C13.4452 34.4394 13.2682 34.8237 13.1469 35.239C13.1367 35.2754 13.1266 35.3117 13.1165 35.3532C12.6817 37.0617 13.4957 38.853 15.0277 39.6579C15.6547 39.9902 16.307 40.2914 16.9744 40.5563C17.5508 40.7847 18.1373 40.9924 18.744 41.1742C29.4176 44.3676 40.5715 38.4377 44.2827 27.8396C44.4294 27.419 44.5659 26.9881 44.6872 26.557C44.758 26.3078 44.8237 26.0586 44.8844 25.8093C45.2889 24.158 44.6114 22.4082 43.1704 21.5722L43.1805 21.5773Z" fill="white"/>
<path fill-rule="evenodd" clip-rule="evenodd" d="M30.4032 15.4866C28.7701 14.7664 27.1723 14.9228 25.6959 15.8893C24.6088 16.6 24.0577 17.6376 23.7746 18.822C23.6886 19.1821 23.6532 19.5469 23.6229 19.9117C23.5925 19.9117 23.5824 19.9117 23.5824 19.9117C23.542 19.8786 23.5015 19.8501 23.4661 19.817C22.1819 18.7699 20.7206 18.2819 19.0167 18.6515C15.5886 19.3953 14.183 23.1524 16.3673 25.7203C17.151 26.6395 18.1673 27.2838 19.2746 27.805C20.392 28.3309 21.5499 28.7478 22.738 29.1079C24.088 29.5153 25.4583 29.8612 26.8487 30.1218C27.688 30.2781 28.4262 30.0555 29.0633 29.5201C29.4122 29.2311 29.6144 28.8426 29.8319 28.473C30.9745 26.5494 32.001 24.5785 32.6684 22.4607C32.9768 21.4847 33.179 20.4897 33.1234 19.4664C33.0274 17.647 32.1729 16.2683 30.4032 15.4866Z" fill="white"/>
</svg>
