<svg width="24" height="24" viewBox="0 0 24 24" fill="none" xmlns="http://www.w3.org/2000/svg">
<mask id="mask0_0_41" style="mask-type:luminance" maskUnits="userSpaceOnUse" x="0" y="0" width="24" height="24">
<path d="M24 0H0V24H24V0Z" fill="white"/>
</mask>
<g mask="url(#mask0_0_41)">
<path d="M12 0.75C9.88 0.7517 7.81001 1.3516 6.01001 2.4808H17.97C16.18 1.3546 14.11 0.7548 12 0.75Z" fill="#B22234"/>
<path d="M6.01001 2.48077C5.24001 2.96967 4.53002 3.55087 3.90002 4.21147H20.11C19.47 3.54897 18.75 2.96767 17.97 2.48077H6.01001Z" fill="white"/>
<path d="M3.90002 4.21149C3.39002 4.74239 2.93003 5.32209 2.53003 5.94239H21.48C21.08 5.32209 20.62 4.74239 20.11 4.21149H3.90002Z" fill="#B22234"/>
<path d="M2.53003 5.94232C2.18003 6.49152 1.87 7.07062 1.62 7.67302H22.37C22.13 7.07132 21.83 6.49232 21.48 5.94232H2.53003Z" fill="white"/>
<path d="M1.62 7.67297C1.39 8.23407 1.19995 8.81297 1.06995 9.40377H22.9301C22.7901 8.81277 22.61 8.23387 22.37 7.67297H1.62Z" fill="#B22234"/>
<path d="M1.06995 9.40381C0.929946 9.97281 0.840039 10.5515 0.790039 11.1346H23.21C23.17 10.5513 23.0701 9.97261 22.9301 9.40381H1.06995Z" fill="white"/>
<path d="M0.790039 11.1348C0.770039 11.4226 0.75 11.7112 0.75 12.0001C0.75 12.2889 0.760039 12.5776 0.790039 12.8655H23.21C23.23 12.5777 23.25 12.289 23.25 12.0001C23.25 11.7113 23.24 11.4226 23.21 11.1348H0.790039Z" fill="#B22234"/>
<path d="M0.790039 12.8652C0.830039 13.4486 0.929946 14.0273 1.06995 14.596H22.9301C23.0701 14.0271 23.16 13.4484 23.21 12.8652H0.790039Z" fill="white"/>
<path d="M1.06995 14.5962C1.20995 15.1873 1.39 15.7661 1.63 16.327H22.38C22.61 15.7659 22.8001 15.1871 22.9301 14.5962H1.06995Z" fill="#B22234"/>
<path d="M1.63 16.327C1.87 16.9287 2.17002 17.5077 2.52002 18.0577H21.47C21.82 17.5085 22.13 16.9294 22.38 16.327H1.63Z" fill="white"/>
<path d="M2.52002 18.0577C2.92002 18.6779 3.38001 19.2576 3.89001 19.7885H20.1C20.61 19.2576 21.07 18.6779 21.47 18.0577H2.52002Z" fill="#B22234"/>
<path d="M3.89001 19.7885C4.53001 20.451 5.25003 21.0323 6.03003 21.5192H17.99C18.76 21.0303 19.47 20.4491 20.1 19.7885H3.89001Z" fill="white"/>
<path d="M6.03003 21.5192C7.82003 22.6454 9.89 23.2452 12 23.25C14.12 23.2483 16.19 22.6483 17.99 21.5192H6.03003Z" fill="#B22234"/>
<path d="M12 0.75C9.02 0.75 6.15005 1.9353 4.05005 4.045C1.94005 6.1548 0.75 9.0163 0.75 12C0.75 12.2973 0.760039 12.5944 0.790039 12.8906H12.89V0.794601C12.59 0.768001 12.3 0.7531 12 0.75Z" fill="#3C3B6E"/>
<path d="M7.96997 1.50847C7.81997 1.56317 7.68003 1.62107 7.53003 1.68207L7.68994 1.80697L7.57996 2.16617L7.88 1.94637L8.18005 2.17667L8.06006 1.80497L8.37 1.57877H8L7.96997 1.50847ZM9.88 1.20117L9.77002 1.57867H9.39001L9.68994 1.80697L9.57996 2.16617L9.88 1.94637L10.1801 2.17667L10.0699 1.80497L10.37 1.57867H10L9.88 1.20117ZM11.88 1.20117L11.77 1.57867H11.4L11.7 1.80697L11.59 2.16617L11.88 1.94637L12.1801 2.17667L12.0699 1.80497L12.37 1.57867H12L11.88 1.20117ZM5.07996 3.14727C5.02996 3.18667 4.97004 3.22657 4.92004 3.26697L5.17004 3.45947L5.07996 3.14727ZM6.88 2.48397L6.76001 2.86157H6.39001L6.68994 3.08987L6.57996 3.44897L6.87 3.22917L7.18005 3.45947L7.06006 3.08787L7.37 2.86157H6.98999L6.88 2.48397ZM8.88 2.48397L8.76001 2.86157H8.39001L8.68994 3.08987L8.57996 3.44897L8.88 3.22917L9.18005 3.45947L9.06995 3.08787L9.37 2.86157H9L8.88 2.48397ZM10.88 2.48397L10.77 2.86157H10.4L10.7 3.08987L10.58 3.44897L10.88 3.22917L11.1801 3.45947L11.0699 3.08787L11.37 2.86157H11L10.88 2.48397ZM3.97998 4.11407C3.86998 4.23157 3.76003 4.35147 3.66003 4.47357L3.57996 4.73177L3.87 4.51188L4.17004 4.74227L4.06006 4.37067L4.35999 4.14437H3.98999L3.97998 4.11407ZM5.88 3.76677L5.76001 4.14437H5.39001L5.68994 4.37267L5.57996 4.73177L5.87 4.51197L6.18005 4.74227L6.06006 4.37067L6.37 4.14437H5.98999L5.88 3.76677ZM7.88 3.76677L7.76001 4.14437H7.39001L7.68994 4.37267L7.57996 4.73177L7.88 4.51197L8.18005 4.74227L8.06006 4.37067L8.37 4.14437H8L7.88 3.76677ZM9.88 3.76677L9.77002 4.14437H9.39001L9.68994 4.37267L9.57996 4.73177L9.88 4.51197L10.1801 4.74227L10.0699 4.37067L10.37 4.14437H10L9.88 3.76677ZM11.88 3.76677L11.77 4.14437H11.4L11.7 4.37267L11.59 4.73177L11.88 4.51197L12.1801 4.74227L12.0699 4.37067L12.37 4.14437H12L11.88 3.76677ZM2.95996 5.32697C2.84996 5.46517 2.75003 5.60567 2.66003 5.74847L2.56995 6.01457L2.87 5.79477L3.17004 6.02507L3.06006 5.65347L3.35999 5.42717H2.98999L2.95996 5.32697ZM4.88 5.04957L4.76001 5.42717H4.39001L4.68994 5.65547L4.57996 6.01457L4.87 5.79477L5.17004 6.02507L5.06006 5.65347L5.35999 5.42717H4.98999L4.88 5.04957ZM6.88 5.04957L6.76001 5.42717H6.39001L6.68994 5.65547L6.57996 6.01457L6.87 5.79477L7.18005 6.02507L7.06006 5.65347L7.37 5.42717H6.98999L6.88 5.04957ZM8.88 5.04957L8.76001 5.42717H8.39001L8.68994 5.65547L8.57996 6.01457L8.88 5.79477L9.18005 6.02507L9.06995 5.65347L9.37 5.42717H9L8.88 5.04957ZM10.88 5.04957L10.77 5.42717H10.4L10.7 5.65547L10.58 6.01457L10.88 5.79477L11.1801 6.02507L11.0699 5.65347L11.37 5.42717H11L10.88 5.04957ZM2.07996 6.70997C2.00996 6.83597 1.95001 6.96327 1.89001 7.09177L2.17004 7.30797L2.06006 6.93637L2.35999 6.70997H2.07996ZM3.87 6.33237L3.76001 6.70997H3.39001L3.68994 6.93827L3.57996 7.29737L3.87 7.07757L4.17004 7.30797L4.06006 6.93627L4.35999 6.70997H3.98999L3.87 6.33237ZM5.88 6.33237L5.76001 6.70997H5.39001L5.68994 6.93827L5.57996 7.29737L5.87 7.07757L6.18005 7.30797L6.06006 6.93627L6.37 6.70997H5.98999L5.88 6.33237ZM7.88 6.33237L7.76001 6.70997H7.39001L7.68994 6.93827L7.57996 7.29737L7.88 7.07757L8.18005 7.30797L8.06006 6.93627L8.37 6.70997H8L7.88 6.33237ZM9.88 6.33237L9.77002 6.70997H9.39001L9.68994 6.93827L9.57996 7.29737L9.88 7.07757L10.1801 7.30797L10.0699 6.93627L10.37 6.70997H10L9.88 6.33237ZM11.88 6.33237L11.77 6.70997H11.4L11.7 6.93827L11.59 7.29737L11.88 7.07757L12.1801 7.30797L12.0699 6.93627L12.37 6.70997H12L11.88 6.33237ZM2.87 7.61517L2.76001 7.99277H2.39001L2.68994 8.22107L2.56995 8.58017L2.87 8.36037L3.17004 8.59067L3.06006 8.21907L3.35999 7.99277H2.98999L2.87 7.61517ZM4.88 7.61517L4.76001 7.99277H4.39001L4.68994 8.22107L4.57996 8.58017L4.87 8.36037L5.17004 8.59067L5.06006 8.21907L5.35999 7.99277H4.98999L4.88 7.61517ZM6.88 7.61517L6.76001 7.99277H6.39001L6.68994 8.22107L6.57996 8.58017L6.87 8.36037L7.18005 8.59067L7.06006 8.21907L7.37 7.99277H6.98999L6.88 7.61517ZM8.88 7.61517L8.76001 7.99277H8.39001L8.68994 8.22107L8.57996 8.58017L8.88 8.36037L9.18005 8.59067L9.06995 8.21907L9.37 7.99277H9L8.88 7.61517ZM10.88 7.61517L10.77 7.99277H10.4L10.7 8.22107L10.58 8.58017L10.88 8.36037L11.1801 8.59067L11.0699 8.21907L11.37 7.99277H11L10.88 7.61517ZM1.87 8.89797L1.76001 9.27557H1.38L1.68005 9.50387L1.56995 9.86297L1.87 9.64317L2.17004 9.87357L2.06006 9.50187L2.35999 9.27557H1.98999L1.87 8.89797ZM3.87 8.89797L3.76001 9.27557H3.39001L3.68994 9.50387L3.57996 9.86297L3.87 9.64317L4.17004 9.87357L4.06006 9.50187L4.35999 9.27557H3.98999L3.87 8.89797ZM5.88 8.89797L5.76001 9.27557H5.39001L5.68994 9.50387L5.57996 9.86297L5.87 9.64317L6.18005 9.87357L6.06006 9.50187L6.37 9.27557H5.98999L5.88 8.89797ZM7.88 8.89797L7.76001 9.27557H7.39001L7.68994 9.50387L7.57996 9.86297L7.88 9.64317L8.18005 9.87357L8.06006 9.50187L8.37 9.27557H8L7.88 8.89797ZM9.88 8.89797L9.77002 9.27557H9.39001L9.68994 9.50387L9.57996 9.86297L9.88 9.64317L10.1801 9.87357L10.0699 9.50187L10.37 9.27557H10L9.88 8.89797ZM11.88 8.89797L11.77 9.27557H11.4L11.7 9.50387L11.59 9.86297L11.88 9.64317L12.1801 9.87357L12.0699 9.50187L12.37 9.27557H12L11.88 8.89797ZM2.87 10.1809L2.76001 10.5584H2.39001L2.68994 10.7867L2.56995 11.1459L2.87 10.9261L3.17004 11.1564L3.06006 10.7847L3.35999 10.5584H2.98999L2.87 10.1809ZM4.88 10.1809L4.76001 10.5584H4.39001L4.68994 10.7867L4.57996 11.1459L4.87 10.9261L5.17004 11.1564L5.06006 10.7847L5.35999 10.5584H4.98999L4.88 10.1809ZM6.88 10.1809L6.76001 10.5584H6.39001L6.68994 10.7867L6.57996 11.1459L6.87 10.9261L7.18005 11.1564L7.06006 10.7847L7.37 10.5584H6.98999L6.88 10.1809ZM8.88 10.1809L8.76001 10.5584H8.39001L8.68994 10.7867L8.57996 11.1459L8.88 10.9261L9.18005 11.1564L9.06995 10.7847L9.37 10.5584H9L8.88 10.1809ZM10.88 10.1809L10.77 10.5584H10.4L10.7 10.7867L10.58 11.1459L10.88 10.9261L11.1801 11.1564L11.0699 10.7847L11.37 10.5584H11L10.88 10.1809ZM1.87 11.4637L1.76001 11.8412H1.38L1.68005 12.0695L1.56995 12.4286L1.87 12.2088L2.17004 12.4392L2.06006 12.0675L2.35999 11.8412H1.98999L1.87 11.4637ZM3.87 11.4637L3.76001 11.8412H3.39001L3.68994 12.0695L3.57996 12.4286L3.87 12.2088L4.17004 12.4392L4.06006 12.0675L4.35999 11.8412H3.98999L3.87 11.4637ZM5.88 11.4637L5.76001 11.8412H5.39001L5.68994 12.0695L5.57996 12.4286L5.87 12.2088L6.18005 12.4392L6.06006 12.0675L6.37 11.8412H5.98999L5.88 11.4637ZM7.88 11.4637L7.76001 11.8412H7.39001L7.68994 12.0695L7.57996 12.4286L7.88 12.2088L8.18005 12.4392L8.06006 12.0675L8.37 11.8412H8L7.88 11.4637ZM9.88 11.4637L9.77002 11.8412H9.39001L9.68994 12.0695L9.57996 12.4286L9.88 12.2088L10.1801 12.4392L10.0699 12.0675L10.37 11.8412H10L9.88 11.4637ZM11.88 11.4637L11.77 11.8412H11.4L11.7 12.0695L11.59 12.4286L11.88 12.2088L12.1801 12.4392L12.0699 12.0675L12.37 11.8412H12L11.88 11.4637Z" fill="white"/>
</g>
</svg>
