<svg width="49" height="49" viewBox="0 0 49 49" fill="none" xmlns="http://www.w3.org/2000/svg">
<path d="M32.5 0.71167H16.5C7.66344 0.71167 0.5 7.88058 0.5 16.7239V32.7361C0.5 41.5794 7.66344 48.7483 16.5 48.7483H32.5C41.3366 48.7483 48.5 41.5794 48.5 32.7361V16.7239C48.5 7.88058 41.3366 0.71167 32.5 0.71167Z" fill="white"/>
<path d="M18.551 14.4191C17.419 15.573 17.419 17.4404 18.572 18.5943L21.088 21.1122C23.457 23.483 23.457 27.3429 21.088 29.7137L16.476 25.0982C15.291 23.9123 14.694 22.3492 14.694 20.797C14.694 19.2448 15.291 17.6816 16.476 16.4957L18.52 14.4502C18.53 14.4402 18.541 14.4291 18.551 14.4191Z" fill="#2500FF"/>
<path d="M20.564 20.5858L18.572 18.5933C17.419 17.4394 17.409 15.582 18.551 14.4181C19.683 13.3052 21.486 13.3263 22.608 14.4491C23.174 15.0155 23.457 15.7601 23.457 16.4947C23.457 17.2292 23.174 17.9738 22.608 18.5402L22.136 19.0126" fill="#2500FF"/>
<path d="M30.449 35.0319C31.581 33.878 31.581 32.0106 30.428 30.8567L27.912 28.3388C25.543 25.968 25.543 22.108 27.912 19.7372L32.524 24.3527C33.709 25.5376 34.306 27.1008 34.306 28.654C34.306 30.2062 33.709 31.7694 32.524 32.9543L30.48 34.9999C30.459 35.0209 30.449 35.0319 30.449 35.0319Z" fill="#2500FF"/>
<path d="M28.425 28.8741L30.417 30.8667C31.57 32.0206 31.58 33.878 30.438 35.0419C29.306 36.1537 27.503 36.1337 26.381 35.0108C25.815 34.4444 25.532 33.6998 25.532 32.9653C25.532 32.2307 25.815 31.4861 26.381 30.9197L26.863 30.4373" fill="#2500FF"/>
</svg>
