<svg width="12" height="12" viewBox="0 0 12 12" fill="none" xmlns="http://www.w3.org/2000/svg">
<path fill-rule="evenodd" clip-rule="evenodd" d="M9.09998 3.11299L6.43994 0.830978C6.30994 0.721978 6.16 0.666992 6 0.666992C5.89 0.666992 5.77994 0.69298 5.68994 0.74498C5.63994 0.76898 5.60006 0.797978 5.56006 0.830978L2.90002 3.11299C2.62002 3.35199 2.58996 3.77298 2.82996 4.05298C3.06996 4.33198 3.49002 4.36498 3.77002 4.12498L5.32996 2.78299V7.94598C5.32996 8.31398 5.63 8.61198 6 8.61198C6.37 8.61198 6.67004 8.31398 6.67004 7.94598V2.78299L8.22998 4.12498C8.50998 4.36498 8.93004 4.33198 9.17004 4.05298C9.41004 3.77298 9.37998 3.35199 9.09998 3.11299ZM2 7.33298C2 6.96498 2.30004 6.66699 2.67004 6.66699H3.67004C4.03004 6.66699 4.32996 6.36798 4.32996 5.99998C4.32996 5.63198 4.03004 5.33298 3.67004 5.33298H2.67004C1.56004 5.33298 0.670044 6.22898 0.670044 7.33298V9.33298C0.670044 10.438 1.56004 11.333 2.67004 11.333H9.32996C10.44 11.333 11.33 10.438 11.33 9.33298V7.33298C11.33 6.22898 10.44 5.33298 9.32996 5.33298H8.32996C7.96996 5.33298 7.67004 5.63198 7.67004 5.99998C7.67004 6.36798 7.96996 6.66699 8.32996 6.66699H9.32996C9.69996 6.66699 10 6.96498 10 7.33298V9.33298C10 9.70098 9.69996 9.99998 9.32996 9.99998H2.67004C2.30004 9.99998 2 9.70098 2 9.33298V7.33298Z" fill="#0F3659"/>
</svg>
