<svg width="40" height="40" viewBox="0 0 40 40" fill="none" xmlns="http://www.w3.org/2000/svg">
<path d="M20 40C31.0457 40 40 31.0457 40 20C40 8.9543 31.0457 0 20 0C8.9543 0 0 8.9543 0 20C0 31.0457 8.9543 40 20 40Z" fill="#FA5A7D"/>
<path fill-rule="evenodd" clip-rule="evenodd" d="M13 11C11.895 11 11 11.895 11 13V27C11 28.105 11.895 29 13 29H27C28.105 29 29 28.105 29 27V13C29 11.895 28.105 11 27 11H13ZM16 21C16 20.448 15.552 20 15 20C14.448 20 14 20.448 14 21V25C14 25.552 14.448 26 15 26C15.552 26 16 25.552 16 25V21ZM20 17C20.552 17 21 17.448 21 18V25C21 25.552 20.552 26 20 26C19.448 26 19 25.552 19 25V18C19 17.448 19.448 17 20 17ZM26 15C26 14.448 25.552 14 25 14C24.448 14 24 14.448 24 15V25C24 25.552 24.448 26 25 26C25.552 26 26 25.552 26 25V15Z" fill="white"/>
</svg>
