<svg width="40" height="40" viewBox="0 0 40 40" fill="none" xmlns="http://www.w3.org/2000/svg">
<path d="M20 40C31.0457 40 40 31.0457 40 20C40 8.9543 31.0457 0 20 0C8.9543 0 0 8.9543 0 20C0 31.0457 8.9543 40 20 40Z" fill="#FF947A"/>
<path fill-rule="evenodd" clip-rule="evenodd" d="M12 14C12 11.791 13.791 10 16 10H22V14C22 16.209 23.791 18 26 18H28V26C28 28.209 26.209 30 24 30H16C13.791 30 12 28.209 12 26V14ZM16 19C15.448 19 15 19.448 15 20C15 20.552 15.448 21 16 21H18C18.552 21 19 20.552 19 20C19 19.448 18.552 19 18 19H16ZM16 23C15.448 23 15 23.448 15 24C15 24.552 15.448 25 16 25H20C20.552 25 21 24.552 21 24C21 23.448 20.552 23 20 23H16ZM24.682 12.199L24.551 14.163C24.511 14.767 25.011 15.267 25.615 15.227L27.579 15.096C28.437 15.039 28.827 13.999 28.22 13.391L26.387 11.558C25.779 10.951 24.739 11.342 24.682 12.199Z" fill="white"/>
</svg>
