<svg width="40" height="40" viewBox="0 0 40 40" fill="none" xmlns="http://www.w3.org/2000/svg">
<path d="M20 40C31.0457 40 40 31.0457 40 20C40 8.9543 31.0457 0 20 0C8.9543 0 0 8.9543 0 20C0 31.0457 8.9543 40 20 40Z" fill="#3CD856"/>
<path fill-rule="evenodd" clip-rule="evenodd" d="M24.626 13.265L21.326 13.737C20.822 13.809 20.41 14.049 20.116 14.381L12.417 22.081C11.636 22.862 11.636 24.128 12.417 24.909L15.245 27.737C16.026 28.519 17.293 28.518 18.074 27.737L25.773 20.038C26.105 19.744 26.345 19.332 26.417 18.828L26.889 15.528C27.077 14.208 25.946 13.077 24.626 13.265ZM22.316 17.838C22.707 18.228 23.34 18.228 23.73 17.838C24.121 17.447 24.121 16.814 23.73 16.424C23.34 16.033 22.707 16.033 22.316 16.424C21.926 16.814 21.926 17.447 22.316 17.838Z" fill="white"/>
</svg>
