<svg width="20" height="22" viewBox="0 0 20 22" fill="none" xmlns="http://www.w3.org/2000/svg">
<path d="M19.67 17.5534C19.03 16.9802 18.47 16.3232 18 15.6C17.49 14.6017 17.18 13.5115 17.1 12.3934V9.09999C17.1 7.34379 16.4701 5.64629 15.3101 4.32669C14.1501 3.00699 12.5501 2.15589 10.8101 1.93329V1.07329C10.8101 0.837288 10.71 0.610889 10.55 0.443989C10.38 0.277089 10.15 0.183289 9.92004 0.183289C9.68004 0.183289 9.45004 0.277089 9.29004 0.443989C9.12004 0.610889 9.03003 0.837288 9.03003 1.07329V1.94669C7.30003 2.18529 5.71995 3.04149 4.56995 4.35679C3.42995 5.67199 2.80006 7.35709 2.81006 9.09999V12.3934C2.72006 13.5115 2.42003 14.6017 1.91003 15.6C1.45003 16.3216 0.89001 16.9785 0.26001 17.5534C0.19001 17.6158 0.129966 17.6927 0.0899658 17.7789C0.0499658 17.8651 0.0300293 17.9587 0.0300293 18.0534V18.96C0.0300293 19.1368 0.0999805 19.3064 0.22998 19.4314C0.34998 19.5564 0.519951 19.6267 0.699951 19.6267H19.23C19.41 19.6267 19.58 19.5564 19.7 19.4314C19.83 19.3064 19.9 19.1368 19.9 18.96V18.0534C19.9 17.9587 19.88 17.8651 19.84 17.7789C19.8 17.6927 19.74 17.6158 19.67 17.5534ZM1.42004 18.2934C2.04004 17.6942 2.59005 17.0227 3.05005 16.2934C3.69005 15.0877 4.06002 13.7574 4.15002 12.3934V9.09999C4.12002 8.31869 4.25003 7.54009 4.53003 6.81049C4.81003 6.08089 5.24003 5.41519 5.78003 4.85319C6.32003 4.29109 6.96994 3.84409 7.68994 3.53889C8.40994 3.23359 9.18997 3.07629 9.96997 3.07629C10.75 3.07629 11.53 3.23359 12.25 3.53889C12.96 3.84409 13.62 4.29109 14.16 4.85319C14.7 5.41519 15.13 6.08089 15.41 6.81049C15.69 7.54009 15.82 8.31869 15.79 9.09999V12.3934C15.87 13.7574 16.25 15.0877 16.89 16.2934C17.35 17.0227 17.9 17.6942 18.52 18.2934H1.42004Z" fill="#FFA412"/>
<path d="M10 21.8533C10.42 21.8436 10.82 21.6857 11.14 21.4075C11.45 21.1294 11.66 20.7488 11.72 20.3333H8.20996C8.27996 20.7601 8.48995 21.1496 8.81995 21.4292C9.14995 21.7088 9.57 21.8595 10 21.8533Z" fill="#FFA412"/>
</svg>
