<svg width="40" height="40" viewBox="0 0 40 40" fill="none" xmlns="http://www.w3.org/2000/svg">
<path d="M20 40C31.0457 40 40 31.0457 40 20C40 8.9543 31.0457 0 20 0C8.9543 0 0 8.9543 0 20C0 31.0457 8.9543 40 20 40Z" fill="#BF83FF"/>
<path fill-rule="evenodd" clip-rule="evenodd" d="M22 16C22 18.209 20.21 20 18 20C15.79 20 14 18.209 14 16C14 13.791 15.79 12 18 12C20.21 12 22 13.791 22 16ZM18 21C14.13 21 11 23.239 11 26C11 27.105 11.9 28 13 28H23C24.1 28 25 27.105 25 26C25 23.239 21.87 21 18 21ZM26 14C26.55 14 27 14.448 27 15V16H28C28.55 16 29 16.448 29 17C29 17.552 28.55 18 28 18H27V19C27 19.552 26.55 20 26 20C25.45 20 25 19.552 25 19V18H24C23.45 18 23 17.552 23 17C23 16.448 23.45 16 24 16H25V15C25 14.448 25.45 14 26 14Z" fill="white"/>
</svg>
