<svg width="28" height="28" viewBox="0 0 28 28" fill="none" xmlns="http://www.w3.org/2000/svg">
<path d="M11.6705 5.98245L12.0417 11.5067L12.2259 14.2828C12.2279 14.568 12.2726 14.8522 12.3589 15.1244C12.5814 15.6538 13.1169 15.9901 13.6994 15.9671L22.5757 15.3856C22.9601 15.3796 23.3313 15.5227 23.6075 15.7859C23.8378 16.0041 23.9865 16.2903 24.0334 16.5985L24.0491 16.7847C23.6818 21.8756 19.9462 26.1208 14.8705 27.2166C9.79466 28.3125 4.58975 25.9977 2.08155 21.5283C1.35845 20.2293 0.906755 18.8022 0.753055 17.3301C0.688855 16.8948 0.660559 16.4544 0.668559 16.0141C0.660559 10.5569 4.54386 5.83934 9.97966 4.70147C10.634 4.5994 11.2753 4.94666 11.5377 5.54312C11.6055 5.68222 11.6503 5.83033 11.6705 5.98245Z" fill="white"/>
<path opacity="0.4" d="M27.3336 11.2234L27.3243 11.2664L27.2974 11.3305L27.3011 11.5036C27.2872 11.7338 27.1984 11.9549 27.0456 12.1341C26.8863 12.3202 26.6687 12.4463 26.4291 12.4954L26.283 12.5154L16.0419 13.1799C15.7012 13.2139 15.362 13.1038 15.1088 12.8776C14.8976 12.6895 14.7627 12.4343 14.7246 12.1611L14.0372 1.9263C14.0252 1.89228 14.0252 1.85424 14.0372 1.82022C14.0466 1.538 14.1707 1.27081 14.3818 1.07966C14.5927 0.887516 14.8732 0.787433 15.1603 0.800443C21.2402 0.95456 26.35 5.32989 27.3336 11.2234Z" fill="white"/>
</svg>
